HIERARCHY
ROOT Hips
{
	OFFSET 0.00000 0.00000 0.00000
	CHANNELS 6 Xposition Yposition Zposition Zrotation Yrotation Xrotation 
	JOINT LHipJoint
	{
		OFFSET 0 0 0
		CHANNELS 3 Zrotation Yrotation Xrotation
		JOINT LeftHip
		{
			OFFSET 1.51378 -1.89840 0.47569
			CHANNELS 3 Zrotation Yrotation Xrotation
			JOINT LeftKnee
			{
				OFFSET 2.53380 -6.96157 0.00000
				CHANNELS 3 Zrotation Yrotation Xrotation
				JOINT LeftAnkle
				{
					OFFSET 2.74874 -7.55212 0.00000
					CHANNELS 3 Zrotation Yrotation Xrotation
					JOINT LeftToe
					{
						OFFSET 0.18263 -0.50178 1.99677
						CHANNELS 3 Zrotation Yrotation Xrotation
						End Site
						{
							OFFSET 0.00000 -0.00000 1.03711
						}
					}
				}
			}
		}
	}
	JOINT RHipJoint
	{
		OFFSET 0 0 0
		CHANNELS 3 Zrotation Yrotation Xrotation
		JOINT RightHip
		{
			OFFSET -1.43037 -1.89840 0.47569
			CHANNELS 3 Zrotation Yrotation Xrotation
			JOINT RightKnee
			{
				OFFSET -2.69849 -7.41406 0.00000
				CHANNELS 3 Zrotation Yrotation Xrotation
				JOINT RightAnkle
				{
					OFFSET -2.69369 -7.40087 0.00000
					CHANNELS 3 Zrotation Yrotation Xrotation
					JOINT RightToe
					{
						OFFSET -0.28932 -0.79491 2.04975
						CHANNELS 3 Zrotation Yrotation Xrotation
						End Site
						{
							OFFSET 0.00009 0.00010 1.09536
						}
					}
				}
			}
		}
	}
	JOINT lowerback
	{
		OFFSET 0 0 0
		CHANNELS 3 Zrotation Yrotation Xrotation
		JOINT Chest
		{
			OFFSET 0.01912 1.94784 -0.02419
			CHANNELS 3 Zrotation Yrotation Xrotation
			JOINT Chest2
			{
				OFFSET 0.07565 1.94258 0.01909
				CHANNELS 3 Zrotation Yrotation Xrotation
				JOINT lowerneck
				{
					OFFSET 0 0 0
					CHANNELS 3 Zrotation Yrotation Xrotation
					JOINT Neck
					{
						OFFSET -0.07010 1.86195 0.18976
						CHANNELS 3 Zrotation Yrotation Xrotation
						JOINT Head
						{
							OFFSET 0.02284 1.86595 -0.31497
							CHANNELS 3 Zrotation Yrotation Xrotation
							End Site
							{
								OFFSET 0.01200 1.90122 -0.12838
							}
						}
					}
				}
				JOINT LeftCollar
				{
					OFFSET 0 0 0
					CHANNELS 3 Zrotation Yrotation Xrotation
					JOINT LeftShoulder
					{
						OFFSET 3.39189 0.96331 -0.10437
CHANNELS 3 Zrotation Xrotation Yrotation
						JOINT LeftElbow
						{
OFFSET 0 -5.148450 0.000000
CHANNELS 3 Zrotation Xrotation Yrotation
							JOINT LeftWrist
							{
OFFSET 0 -3.436740 -0.000000
CHANNELS 3 Zrotation Xrotation Yrotation
								JOINT lhand
								{
									OFFSET 0 0 0
CHANNELS 3 Zrotation Xrotation Yrotation
									JOINT LFingers
									{
OFFSET 0 -0.588710 0.000000
CHANNELS 3 Zrotation Xrotation Yrotation
										End Site
										{
OFFSET 0 -0.474630 0.000000
										}
									}
								}
								JOINT LThumb
								{
OFFSET 0 0.000000 0.000000
CHANNELS 3 Zrotation Xrotation Yrotation
									End Site
									{
OFFSET 0 -0.481880 0.481880
									}
								}
							}
						}
					}
				}
				JOINT RightCollar
				{
					OFFSET 0 0 0
					CHANNELS 3 Zrotation Yrotation Xrotation
					JOINT RightShoulder
					{
						OFFSET -3.34934 1.18831 -0.19928
CHANNELS 3 Zrotation Xrotation Yrotation
						JOINT RightElbow
						{
OFFSET 0 -5.421850 0.000000
CHANNELS 3 Zrotation Xrotation Yrotation
							JOINT RightWrist
							{
OFFSET 0 -3.513170 -0.000000
CHANNELS 3 Zrotation Xrotation Yrotation
								JOINT rhand
								{
									OFFSET 0 0 0
CHANNELS 3 Zrotation Xrotation Yrotation
									JOINT RFingers
									{
OFFSET 0 -0.663190 0.000000
CHANNELS 3 Zrotation Xrotation Yrotation
										End Site
										{
OFFSET 0 -0.534680 0.000000
										}
									}
								}
								JOINT RThumb
								{
OFFSET 0 0.000000 0.000000
CHANNELS 3 Zrotation Xrotation Yrotation
									End Site
									{
OFFSET 0 -0.542840 0.542840
									}
								}
							}
						}
					}
				}
			}
		}
	}
}
MOTION
Frames: 9
Frame Time: 0.008333333333333333
17.751400 17.974100 -14.972700 -3.642100 -51.277300 11.360900 0.000000 0.000000 0.000000 -19.894600 -5.907800 -15.956600 2.495000 9.828800 28.424100 1.074000 4.396700 -21.626400 0.054400 -1.504400 -4.138000 0.000000 0.000000 0.000000 26.866600 8.708100 -18.349400 -3.817100 -11.913000 35.424900 -2.029200 -4.317900 -28.730300 -0.000800 -0.179000 0.491700 -1.074700 -0.411600 -1.629600 3.771900 -0.560100 -1.273100 4.481400 -0.271800 -0.345200 -3.672400 -0.324400 -16.886900 -1.103100 0.726500 23.248300 0.314600 -0.183100 10.217100 -0.000000 -0.000000 0.000000 -2.947800 3.122300 -16.765800 16.535500 -26.241400 3.879700 20.866500 7.501800 -24.228500 0.000000 0.000000 0.000000 -7.125000 0.000000 0.000000 -9.179500 55.460100 2.371400 -0.000000 -0.000000 0.000000 -2.333300 0.947700 19.004500 -14.477700 -23.413500 -3.015300 -25.841800 -5.311000 -14.793400 0.000000 0.000000 0.000000 7.125000 0.000000 -0.000000 1.152100 13.628900 0.848400
17.714210 17.986061 -14.942767 -1.865486 -51.216690 10.197113 0.000000 0.000000 0.000000 -21.245857 -5.634552 -15.278872 2.287727 9.441355 27.185849 1.040657 4.133962 -21.180175 0.041722 -1.316820 -3.620978 0.000000 0.000000 0.000000 25.541199 7.583516 -18.865241 -3.891814 -12.015022 35.785098 -2.145335 -3.348296 -29.029171 0.000000 -0.014680 0.040310 -1.879089 -0.514482 -1.945939 3.498990 -0.685492 -1.067286 4.648253 -0.338080 0.059797 -3.099673 -0.239350 -17.148445 -2.068577 0.953916 24.234739 -0.097519 -0.173355 10.634591 0.000000 0.000000 0.000000 -3.065627 3.146627 -17.202582 16.911347 -26.740763 4.047416 20.651926 7.042948 -24.379241 0.000000 0.000000 0.000000 -7.125000 0.000000 0.000000 -9.468101 55.570425 2.472364 0.000000 0.000000 0.000000 -2.490055 1.056470 19.544365 -14.767709 -23.821497 -3.131504 -26.100594 -5.686835 -14.502693 0.000000 0.000000 0.000000 7.125000 0.000000 0.000000 0.953593 13.912905 0.696859
17.676115 17.976902 -14.952131 -1.687189 -51.547108 10.301416 0.000000 0.000000 0.000000 -21.314624 -5.920602 -15.479433 2.321109 9.505206 27.388733 1.013720 4.800812 -21.330813 0.068606 -1.689753 -4.649046 0.000000 0.000000 0.000000 25.461151 7.775874 -19.114405 -3.902079 -12.028893 35.834306 -2.086952 -3.617022 -28.775281 -0.012143 0.711832 -1.956230 -1.857950 -0.408304 -1.795169 3.531721 -0.549209 -0.762296 4.672955 -0.277681 0.276161 -3.497215 -0.257724 -17.311898 -2.166878 1.082037 24.583113 -0.050282 -0.175728 10.796241 0.000000 0.000000 0.000000 -3.299060 2.729962 -17.081897 16.947952 -26.789048 4.063847 21.086539 7.346253 -24.199507 0.000000 0.000000 0.000000 -7.125000 0.000000 0.000000 -8.937768 55.475116 2.311504 0.000000 0.000000 0.000000 -2.667392 0.737638 19.832077 -14.941204 -24.064169 -3.201908 -26.456971 -5.501423 -14.279171 0.000000 0.000000 0.000000 7.125000 0.000000 0.000000 0.693618 14.112112 0.505816
17.634354 17.970423 -14.979534 -1.814257 -51.831353 10.712978 0.000000 0.000000 0.000000 -20.997355 -5.640982 -16.098394 2.374887 9.606810 27.712536 1.066791 4.352417 -21.538254 0.041212 -1.310174 -3.602621 0.000000 0.000000 0.000000 25.693258 8.389935 -19.233443 -3.903230 -12.030471 35.839801 -1.972513 -4.416551 -28.407229 -0.078452 1.806235 -4.970438 -1.820006 -0.427655 -1.346801 3.607552 -0.577128 -0.756283 4.733130 -0.287976 0.033789 -3.380539 -0.019842 -16.568662 -2.554586 1.435804 24.551966 -0.159525 -0.049793 10.643891 0.000000 0.000000 0.000000 -3.183283 2.780520 -17.070088 16.950677 -26.792707 4.065118 19.880952 6.798098 -24.293680 0.000000 0.000000 0.000000 -7.125000 0.000000 0.000000 -10.230710 55.328010 2.613551 0.000000 0.000000 0.000000 -2.737688 1.066874 20.739209 -15.347519 -24.627932 -3.369454 -26.495643 -6.021460 -13.679841 0.000000 0.000000 0.000000 7.125000 0.000000 0.000000 0.618746 14.766902 0.442865
17.570668 17.963207 -14.972874 -1.517087 -52.329287 10.836743 0.000000 0.000000 0.000000 -21.160322 -6.585966 -15.924491 2.381589 9.619329 27.752647 1.034704 5.532622 -21.970416 0.026303 -1.046364 -2.876302 0.000000 0.000000 0.000000 25.481355 8.618265 -19.425353 -3.908070 -12.037031 35.863276 -2.054009 -3.795803 -28.643699 -0.038601 1.250715 -3.439199 -1.767798 -0.292412 -1.555219 3.536946 -0.399464 -0.575233 4.630794 -0.206162 0.318822 -3.350253 0.117342 -16.747316 -2.829253 1.715339 25.211396 -0.228824 0.023054 10.927409 0.000000 0.000000 0.000000 -3.008212 2.412075 -17.620428 16.716480 -26.482520 3.960089 21.371625 7.001608 -23.957067 0.000000 0.000000 0.000000 -7.125000 0.000000 0.000000 -8.540283 55.284000 2.168801 0.000000 0.000000 0.000000 -2.680992 1.117652 20.947820 -15.444218 -24.761323 -3.409817 -27.536210 -5.667890 -13.254274 0.000000 0.000000 0.000000 7.125000 0.000000 0.000000 -0.126039 15.103437 -0.088821
17.475933 17.949875 -14.960696 -1.729215 -52.840404 11.038151 0.000000 0.000000 0.000000 -20.923829 -6.107178 -15.832297 2.401221 9.656049 27.869942 1.102274 5.299050 -22.413443 0.013963 -0.762733 -2.096250 0.000000 0.000000 0.000000 25.754548 8.855561 -18.983331 -3.879680 -11.998592 35.726859 -2.145121 -3.239411 -28.980259 -0.003209 0.363054 -0.997520 -1.590249 -0.200153 -1.576501 3.583600 -0.284437 -0.355143 4.580184 -0.155655 0.545498 -3.318080 0.251728 -16.166988 -3.105428 1.924453 24.939025 -0.303404 0.098166 10.717530 0.000000 0.000000 0.000000 -3.107211 2.870653 -17.951316 16.956781 -26.800723 4.067814 21.823375 6.480639 -23.647890 0.000000 0.000000 0.000000 -7.125000 0.000000 0.000000 -7.944171 55.056868 1.971297 0.000000 0.000000 0.000000 -2.816357 1.334728 20.677019 -15.339818 -24.617338 -3.366201 -25.997620 -6.236326 -14.589455 0.000000 0.000000 0.000000 7.125000 0.000000 0.000000 1.030388 13.831247 0.754280
17.357390 17.935155 -14.956770 -1.894748 -53.199674 11.264104 0.000000 0.000000 0.000000 -20.642731 -6.550151 -15.443200 2.429897 9.709252 28.040304 1.100897 6.079610 -22.893991 0.020608 -0.925882 -2.544747 0.000000 0.000000 0.000000 26.072901 8.844160 -18.752598 -3.887593 -12.009323 35.764938 -2.166730 -3.134218 -29.072110 -0.016883 0.838708 -2.304979 -1.561813 -0.088736 -1.499407 3.525188 -0.135695 -0.317574 4.506215 -0.080917 0.526971 -2.943153 0.408989 -15.974602 -3.442594 2.123776 25.144108 -0.462255 0.176627 10.763756 0.000000 0.000000 0.000000 -2.891331 2.984846 -17.479884 17.011822 -26.873290 4.092713 20.898266 6.459842 -24.377178 0.000000 0.000000 0.000000 -7.125000 0.000000 0.000000 -9.210123 55.618536 2.414921 0.000000 0.000000 0.000000 -2.445067 1.601728 20.257619 -15.170092 -24.382559 -3.295849 -25.101142 -5.647324 -14.748299 0.000000 0.000000 0.000000 7.125000 0.000000 0.000000 1.648826 13.775602 1.209274
17.197032 17.908087 -14.958687 -1.791429 -53.832393 11.309304 0.000000 0.000000 0.000000 -20.413199 -5.892677 -15.535628 2.492146 9.823669 28.407595 1.168129 5.905713 -23.343843 0.034185 -1.192441 -3.278521 0.000000 0.000000 0.000000 26.337731 9.415766 -18.248134 -3.904276 -12.031929 35.845071 -2.240072 -3.009731 -29.482360 -0.012167 0.711007 -1.953909 -1.823474 0.081824 -1.716168 3.492049 0.096080 -0.232890 4.626083 0.030860 0.714368 -3.172174 0.613203 -15.506258 -3.650321 2.500121 25.233680 -0.448769 0.299017 10.710510 0.000000 0.000000 0.000000 -3.006864 3.295319 -17.230381 16.952600 -26.795262 4.065928 21.646042 6.978355 -23.938451 0.000000 0.000000 0.000000 -7.125000 0.000000 0.000000 -8.245350 55.320498 2.099500 0.000000 0.000000 0.000000 -2.349711 1.716066 20.740914 -14.958708 -24.088589 -3.209082 -25.021917 -4.063645 -13.730639 0.000000 0.000000 0.000000 7.125000 0.000000 0.000000 1.628785 14.893349 1.156138
17.021819 17.860681 -14.965357 -2.761052 -54.197684 11.851315 0.000000 0.000000 0.000000 -19.365734 -5.079966 -16.126107 2.853255 10.453446 30.458069 1.335144 5.291234 -24.312511 0.073538 -1.731277 -4.763983 0.000000 0.000000 0.000000 27.439087 9.031653 -17.489421 -3.892459 -12.015904 35.788375 -2.319223 -2.830610 -29.900184 -0.032099 1.154797 -3.174833 -1.441671 0.477460 -1.254897 3.558235 0.613430 -0.068025 4.485192 0.290391 0.579616 -2.988674 0.738027 -15.194527 -4.249938 2.769979 25.313262 -0.660193 0.365308 10.695828 0.000000 0.000000 0.000000 -2.916593 3.723755 -17.419593 17.431905 -27.423586 4.284343 21.154645 6.191034 -23.228689 0.000000 0.000000 0.000000 -7.125000 0.000000 0.000000 -8.471487 54.492766 1.986628 0.000000 0.000000 0.000000 -2.195257 1.615540 20.592193 -14.917157 -24.030529 -3.192101 -25.728247 -3.380323 -12.706149 0.000000 0.000000 0.000000 7.125000 0.000000 0.000000 1.073092 15.929787 0.737488
